<svg width="161" height="161" viewBox="0 0 161 161" fill="none" xmlns="http://www.w3.org/2000/svg">
<path d="M66.6159 149.464C66.9393 149.527 67.1945 149.694 67.3816 149.966C67.5654 150.239 67.624 150.538 67.5572 150.864C67.4977 151.182 67.3315 151.432 67.0587 151.613C66.783 151.794 66.4835 151.852 66.1601 151.789C65.8534 151.729 65.6051 151.563 65.4152 151.291C65.2225 151.019 65.1559 150.723 65.2154 150.405C65.2609 150.188 65.3568 150.001 65.5033 149.845C65.6465 149.69 65.8162 149.578 66.0126 149.506C66.2085 149.437 66.4096 149.423 66.6159 149.464Z" fill="#37BC93"/>
<path d="M44.4625 148.089L42.3848 147.023L45.1157 141.7C45.3776 141.196 45.7334 140.816 46.1833 140.562C46.6294 140.308 47.1287 140.188 47.6812 140.2C48.23 140.213 48.7913 140.367 49.365 140.661C49.863 140.917 50.2739 141.236 50.5977 141.619C50.9203 142.005 51.1088 142.447 51.1634 142.944C51.2167 143.444 51.089 143.992 50.7805 144.587L48.6724 143.505C48.7646 143.307 48.816 143.126 48.8266 142.962C48.8347 142.797 48.8032 142.653 48.732 142.53C48.657 142.409 48.5424 142.308 48.3883 142.229C48.2315 142.149 48.0826 142.116 47.9414 142.129C47.7977 142.142 47.6637 142.201 47.5394 142.306C47.4137 142.414 47.2984 142.567 47.1935 142.766L44.4625 148.089Z" fill="#37BC93"/>
<path d="M41.4382 136.187L36.1305 143.115L31.1377 139.29L32.2987 137.774L35.4108 140.159L36.323 138.968L33.4681 136.781L34.6291 135.265L37.4841 137.453L38.3964 136.262L35.2978 133.888L36.4589 132.373L41.4382 136.187Z" fill="#37BC93"/>
<path d="M20.1162 128.108L26.7021 122.382L27.9995 123.874L26.6084 129.262L26.642 129.301L30.1021 126.292L31.6568 128.08L25.0709 133.806L23.7512 132.288L25.1629 126.95L25.1181 126.899L21.6709 129.896L20.1162 128.108Z" fill="#37BC93"/>
<path d="M22.546 116.555L14.948 120.849L11.8535 115.373L13.5156 114.434L15.4444 117.847L16.7503 117.109L14.9808 113.978L16.6428 113.038L18.4123 116.17L19.7182 115.432L17.7978 112.033L19.4598 111.094L22.546 116.555Z" fill="#37BC93"/>
<path d="M16.7708 105.225L8.50721 108.032L7.29567 104.465C7.08735 103.851 7.01671 103.277 7.08374 102.741C7.15077 102.205 7.3507 101.738 7.68354 101.34C8.01637 100.942 8.476 100.643 9.06241 100.444C9.65421 100.243 10.198 100.205 10.6937 100.331C11.1885 100.454 11.6199 100.717 11.9878 101.12C12.3548 101.521 12.6452 102.036 12.859 102.665L13.5827 104.795L11.8396 105.387L11.2694 103.709C11.1799 103.445 11.0713 103.232 10.9437 103.068C10.8125 102.903 10.6574 102.795 10.4783 102.745C10.2983 102.692 10.0913 102.705 9.85731 102.784C9.62059 102.865 9.44562 102.981 9.33239 103.134C9.21556 103.284 9.15415 103.466 9.14817 103.678C9.13858 103.888 9.17856 104.125 9.2681 104.389L9.53672 105.18L16.0088 102.981L16.7708 105.225ZM11.3333 101.671L14.4245 98.3169L15.2523 100.754L12.1447 104.06L11.3333 101.671Z" fill="#37BC93"/>
<path d="M4.26304 92.0997L12.8656 90.6297L13.2647 92.9651L4.66213 94.4352L4.26304 92.0997ZM3.78907 93.3739C3.84267 93.6875 3.785 93.9741 3.61606 94.2335C3.44711 94.4929 3.21703 94.6475 2.92579 94.6973C2.63456 94.7471 2.36619 94.6776 2.12069 94.489C1.87518 94.3004 1.72563 94.0493 1.67203 93.7356C1.61796 93.4192 1.67563 93.1327 1.84505 92.876C2.014 92.6166 2.24408 92.462 2.53532 92.4122C2.82655 92.3625 3.09492 92.4319 3.34042 92.6205C3.58545 92.8063 3.735 93.0574 3.78907 93.3739Z" fill="#37BC93"/>
<path d="M12.0926 84.2777L3.36587 84.3742L3.33966 82.0051L6.86785 81.966L6.86653 81.8467L3.3093 79.2609L3.27876 76.4997L7.1975 79.4054L12.0047 76.335L12.036 79.1644L8.7852 81.1607L9.81654 81.9334L12.0664 81.9085L12.0926 84.2777Z" fill="#37BC93"/>
<path d="M12.0681 60.9118C11.9781 61.2289 11.7902 61.4694 11.5045 61.6334C11.2168 61.7939 10.9134 61.8274 10.5944 61.7339C10.2821 61.6482 10.047 61.4619 9.88928 61.175C9.7323 60.8853 9.69879 60.582 9.78877 60.2649C9.87409 59.9643 10.06 59.7306 10.3465 59.5639C10.6338 59.3944 10.9337 59.3525 11.246 59.4382C11.4584 59.5014 11.6365 59.6125 11.7804 59.7715C11.9223 59.927 12.0208 60.1055 12.0758 60.3072C12.128 60.508 12.1255 60.7096 12.0681 60.9118Z" fill="#37BC93"/>
<path d="M17.5184 35.5051L24.8254 40.2772L23.7442 41.9327L18.1809 42.0657L18.1529 42.1085L21.992 44.6157L20.6964 46.5995L13.3894 41.8274L14.4892 40.1433L20.0103 40.0438L20.0476 39.9867L16.2228 37.4888L17.5184 35.5051Z" fill="#37BC93"/>
<path d="M24.6141 27.018L30.9931 32.9739L29.3762 34.7057L22.9971 28.7498L24.6141 27.018ZM23.313 27.4124C23.0959 27.6449 22.8329 27.7725 22.5242 27.7952C22.2154 27.8178 21.9531 27.7284 21.7371 27.5267C21.5211 27.3251 21.4139 27.0695 21.4153 26.7599C21.4168 26.4503 21.5261 26.1792 21.7432 25.9467C21.9623 25.712 22.2252 25.5844 22.5321 25.5638C22.8408 25.5412 23.1032 25.6307 23.3191 25.8323C23.5351 26.0339 23.6424 26.2895 23.6409 26.5991C23.6414 26.9066 23.5321 27.1777 23.313 27.4124Z" fill="#37BC93"/>
<path d="M31.2034 23.2789L30.0306 21.7725L36.0159 17.1129L37.1886 18.6193L35.1173 20.2318L39.3058 25.6118L37.4631 27.0464L33.2747 21.6663L31.2034 23.2789Z" fill="#37BC93"/>
<path d="M45.9414 21.1386L41.9535 13.3757L47.5483 10.5016L48.4206 12.1998L44.9334 13.9912L45.6188 15.3254L48.8179 13.682L49.6903 15.3801L46.4911 17.0236L47.1766 18.3578L50.6486 16.5742L51.521 18.2723L45.9414 21.1386Z" fill="#37BC93"/>
<path d="M57.5096 15.8379L54.9739 7.48715L57.241 6.79875L59.222 13.3228L62.5982 12.2976L63.1529 14.1243L57.5096 15.8379Z" fill="#37BC93"/>
<path d="M70.0098 3.9809L71.2605 12.6181L68.9156 12.9576L67.6649 4.32044L70.0098 3.9809ZM68.7481 3.47467C68.4332 3.52027 68.1482 3.45532 67.8931 3.27984C67.6381 3.10435 67.4894 2.8704 67.447 2.578C67.4047 2.28559 67.4809 2.01908 67.6757 1.77845C67.8705 1.53782 68.1254 1.39471 68.4403 1.34911C68.758 1.3031 69.0429 1.36805 69.2952 1.54394C69.5502 1.71943 69.6989 1.95337 69.7413 2.24578C69.7836 2.53818 69.7074 2.8047 69.5126 3.04533C69.3206 3.28555 69.0658 3.42866 68.7481 3.47467Z" fill="#37BC93"/>
<path d="M77.6301 12.0068L77.7556 3.28048L80.1247 3.31455L80.0739 6.84259L80.1933 6.84431L82.8687 3.35401L85.6298 3.39372L82.6254 7.23728L85.5725 12.1211L82.7432 12.0804L80.8303 8.77981L80.0315 9.79115L79.9992 12.0409L77.6301 12.0068Z" fill="#37BC93"/>
<path d="M90.3325 12.7607L92.0162 4.19733L94.341 4.65442L93.0256 11.3445L96.4878 12.0252L96.1195 13.8984L90.3325 12.7607Z" fill="#37BC93"/>
<path d="M106.937 8.16404L103.985 16.3767L101.755 15.5751L104.708 7.36245L106.937 8.16404ZM106.061 7.12452C105.762 7.01687 105.541 6.82568 105.398 6.55096C105.255 6.27624 105.234 5.99986 105.334 5.72183C105.434 5.4438 105.626 5.24432 105.911 5.12338C106.196 5.00244 106.488 4.99579 106.788 5.10344C107.09 5.21205 107.311 5.40323 107.451 5.67699C107.594 5.95172 107.615 6.22809 107.515 6.50612C107.415 6.78416 107.223 6.98364 106.938 7.10458C106.655 7.22648 106.363 7.23313 106.061 7.12452Z" fill="#37BC93"/>
<path d="M120.122 21.848C119.851 21.6608 119.684 21.4056 119.62 21.0822C119.561 20.7582 119.627 20.4602 119.818 20.1882C119.999 19.9201 120.252 19.7574 120.574 19.7003C120.899 19.6448 121.197 19.7107 121.468 19.8978C121.725 20.0753 121.887 20.3265 121.952 20.6514C122.02 20.978 121.964 21.2753 121.782 21.5435C121.654 21.7243 121.491 21.8572 121.295 21.9423C121.102 22.0267 120.901 22.0625 120.692 22.0497C120.485 22.0346 120.295 21.9673 120.122 21.848Z" fill="#37BC93"/>
<path d="M130.868 34.6731L137.659 29.1909L139.147 31.0344L136.402 33.2509L136.477 33.3437L140.871 33.1697L142.606 35.3182L137.73 35.4651L135.858 40.8535L134.081 38.6519L135.396 35.0709L134.107 35.1032L132.357 36.5166L130.868 34.6731Z" fill="#37BC93"/>
<path d="M139.5 46.8859L138.308 44.6241L147.371 43.1032L148.881 45.9682L142.504 52.5859L141.312 50.324L146.016 45.6865L145.984 45.6262L139.5 46.8859ZM142.323 44.8583L144.565 49.1106L142.996 49.9372L140.755 45.6848L142.323 44.8583Z" fill="#37BC93"/>
<path d="M144.282 57.2783L152.643 54.775L153.723 58.3837C153.909 59.0042 153.959 59.581 153.872 60.114C153.786 60.647 153.569 61.1064 153.222 61.492C152.874 61.8777 152.404 62.1594 151.811 62.337C151.212 62.5163 150.667 62.5341 150.177 62.3904C149.687 62.2495 149.265 61.9709 148.912 61.5547C148.56 61.1411 148.289 60.616 148.098 59.9791L147.453 57.8237L149.216 57.2956L149.725 58.9939C149.804 59.2606 149.905 59.478 150.027 59.6463C150.152 59.8164 150.303 59.9298 150.48 59.9865C150.658 60.0459 150.865 60.0402 151.102 59.9693C151.342 59.8976 151.521 59.7876 151.639 59.6394C151.762 59.493 151.83 59.314 151.843 59.1023C151.861 58.8925 151.829 58.6543 151.749 58.3876L151.51 57.5875L144.962 59.5481L144.282 57.2783ZM149.586 61.0281L146.375 64.2672L145.637 61.8015L148.863 58.6114L149.586 61.0281Z" fill="#37BC93"/>
<path d="M147.647 71.8498L147.4 69.3049L156.365 71.3287L156.678 74.5522L148.27 78.2628L148.023 75.7179L154.133 73.2066L154.126 73.1388L147.647 71.8498ZM151.028 71.042L151.493 75.8263L149.728 75.9976L149.264 71.2133L151.028 71.042Z" fill="#37BC93"/>
<path d="M148.139 83.2793L156.825 84.1275L156.595 86.4856L153.083 86.1427L153.072 86.2614L156.328 89.2169L156.06 91.9652L152.479 88.6526L147.367 91.1849L147.642 88.3687L151.09 86.7358L150.148 85.8561L147.909 85.6374L148.139 83.2793Z" fill="#37BC93"/>
<path d="M152.972 97.5547L154.804 98.0902L152.677 105.371L150.844 104.836L151.581 102.316L145.036 100.404L145.691 98.162L152.236 100.074L152.972 97.5547Z" fill="#37BC93"/>
<path d="M142.272 107.914L150.048 111.876L147.193 117.48L145.492 116.613L147.272 113.12L145.935 112.439L144.302 115.644L142.601 114.777L144.234 111.572L142.898 110.891L141.125 114.369L139.424 113.503L142.272 107.914Z" fill="#37BC93"/>
<path d="M136.017 118.986L142.921 124.325L140.617 127.305C140.221 127.817 139.781 128.193 139.297 128.433C138.813 128.674 138.314 128.765 137.798 128.707C137.282 128.65 136.78 128.431 136.29 128.053C135.795 127.67 135.463 127.238 135.294 126.755C135.124 126.275 135.105 125.77 135.237 125.241C135.368 124.713 135.637 124.187 136.044 123.661L137.42 121.881L138.876 123.007L137.792 124.41C137.622 124.63 137.504 124.838 137.438 125.035C137.372 125.236 137.368 125.425 137.425 125.602C137.48 125.781 137.606 125.946 137.801 126.097C137.999 126.25 138.193 126.332 138.383 126.342C138.573 126.356 138.758 126.307 138.938 126.195C139.118 126.087 139.294 125.923 139.464 125.702L139.975 125.042L134.568 120.861L136.017 118.986ZM136.058 125.482L131.554 124.758L133.129 122.722L137.601 123.486L136.058 125.482Z" fill="#37BC93"/>
<path d="M131.984 136.662L126.007 130.303L127.734 128.681L133.711 135.04L131.984 136.662ZM133.308 136.354C133.54 136.136 133.811 136.026 134.121 136.023C134.43 136.021 134.686 136.127 134.888 136.342C135.091 136.558 135.181 136.82 135.16 137.129C135.138 137.437 135.011 137.701 134.779 137.919C134.545 138.139 134.275 138.249 133.967 138.249C133.658 138.252 133.402 138.145 133.199 137.93C132.997 137.715 132.907 137.453 132.928 137.144C132.948 136.837 133.074 136.574 133.308 136.354Z" fill="#37BC93"/>
<path d="M120.616 142.063C120.794 142.285 121.006 142.408 121.253 142.433C121.498 142.46 121.779 142.365 122.096 142.15C122.298 142.013 122.447 141.875 122.543 141.738C122.638 141.605 122.688 141.477 122.693 141.353C122.699 141.229 122.667 141.114 122.597 141.006C122.543 140.916 122.474 140.848 122.391 140.801C122.307 140.758 122.206 140.736 122.088 140.734C121.971 140.734 121.836 140.754 121.681 140.794C121.526 140.834 121.351 140.894 121.155 140.976L120.477 141.251C120.019 141.437 119.602 141.558 119.223 141.612C118.845 141.666 118.501 141.661 118.192 141.596C117.885 141.533 117.61 141.414 117.368 141.238C117.123 141.065 116.906 140.841 116.717 140.568C116.397 140.091 116.243 139.609 116.255 139.12C116.267 138.631 116.433 138.153 116.754 137.685C117.072 137.218 117.537 136.777 118.148 136.362C118.776 135.936 119.386 135.658 119.98 135.526C120.572 135.396 121.128 135.436 121.648 135.646C122.167 135.86 122.633 136.268 123.045 136.87L121.184 138.134C121.022 137.921 120.841 137.773 120.64 137.689C120.439 137.606 120.223 137.586 119.992 137.63C119.758 137.675 119.517 137.782 119.267 137.951C119.058 138.093 118.901 138.238 118.795 138.385C118.689 138.533 118.63 138.677 118.62 138.818C118.609 138.959 118.642 139.089 118.72 139.208C118.797 139.317 118.899 139.389 119.025 139.423C119.151 139.462 119.315 139.46 119.517 139.419C119.721 139.381 119.977 139.3 120.285 139.177L121.109 138.844C121.843 138.548 122.504 138.438 123.093 138.512C123.682 138.59 124.166 138.911 124.547 139.477C124.86 139.934 125.01 140.418 124.996 140.929C124.981 141.443 124.82 141.946 124.511 142.437C124.2 142.93 123.758 143.37 123.187 143.758C122.604 144.153 122.034 144.398 121.476 144.491C120.918 144.585 120.403 144.533 119.932 144.334C119.46 144.139 119.063 143.807 118.74 143.336L120.616 142.063Z" fill="#37BC93"/>
<path d="M113.251 147.298L114.011 149.05L107.052 152.068L106.293 150.317L108.701 149.272L105.987 143.017L108.13 142.088L110.843 148.343L113.251 147.298Z" fill="#37BC93"/>
<path d="M98.2607 154.678L96.0922 146.224L98.3872 145.635L100.556 154.089L98.2607 154.678ZM99.5693 155.046C99.8775 154.967 100.168 155.001 100.44 155.148C100.713 155.295 100.885 155.512 100.959 155.798C101.032 156.084 100.985 156.357 100.817 156.617C100.649 156.877 100.411 157.047 100.103 157.126C99.792 157.206 99.5017 157.172 99.2321 157.024C98.9597 156.877 98.7868 156.66 98.7134 156.374C98.64 156.088 98.6873 155.815 98.8552 155.554C99.0203 155.295 99.2584 155.125 99.5693 155.046Z" fill="#37BC93"/>
<path d="M89.8246 147.514L90.6344 156.203L88.2753 156.423L87.9479 152.91L87.8291 152.921L85.5428 156.678L82.7933 156.934L85.3689 152.791L81.9157 148.251L84.733 147.988L86.9885 151.065L87.6743 149.974L87.4655 147.733L89.8246 147.514Z" fill="#37BC93"/>
</svg>
