<svg width="250" height="250" viewBox="0 0 250 250" fill="none" xmlns="http://www.w3.org/2000/svg">
<rect width="250" height="250" fill="white"/>
<path d="M166.944 89.54C166.91 89.8107 166.843 90.1156 166.758 90.4364L166.708 90.623L166.674 90.8088C166.605 91.232 166.47 91.6893 166.301 92.1117L166.216 92.3824C165.488 94.5651 164.338 97.0526 162.935 99.387C159.837 104.633 155.168 109.015 149.026 112.433C146.319 113.956 143.307 115.309 140.024 116.442L138.214 114.97L138.163 114.936L129.822 107.83C127.031 105.428 122.936 105.428 120.143 107.83L110.906 115.698L102.598 122.77L102.547 122.805L99.2131 125.681C97.5392 127.086 96.5572 129.149 96.5572 131.366V211.583H66V39H96.5572V98.7112C103.799 85.1921 119.163 79.3206 134.305 79.5747C141.124 79.5747 146.962 80.2512 151.988 81.6216C156.911 82.9753 161.057 84.9555 164.609 87.6114C165.421 88.203 166.2 88.8461 166.944 89.54Z" fill="#37BC93"/>
<path d="M184 141.129V211.583H153.443V146.814C153.443 146.222 153.443 145.629 153.408 145.02V131.366C153.408 129.149 152.462 127.085 150.787 125.681L148.181 123.448H148.13L148.012 123.346C143.206 125.427 138.384 126.866 134.104 127.812C133.495 127.982 132.851 128.033 132.259 128.033C132.089 128.033 131.92 128.033 131.753 127.982C131.395 131.417 128.537 134.073 124.984 134.073C121.21 134.073 118.181 131.028 118.181 127.255C118.181 123.837 120.652 121.011 123.918 120.504C124.256 120.453 124.594 120.419 124.984 120.419C126.269 120.419 127.471 120.758 128.486 121.4C129.348 121.874 130.111 122.601 130.669 123.414L130.72 123.448C131.481 123.785 132.293 123.837 133.156 123.667C138.807 122.382 145.355 120.335 151.514 116.866C157.69 113.431 163.375 108.642 167.317 101.959C168.773 99.5228 170.142 96.697 171.04 93.9562C171.344 93.1948 171.547 92.4167 171.682 91.6893C172.41 88.8295 172.41 86.2578 171.158 84.6674C169.974 83.1779 167.571 82.5348 164.61 82.5348C163.798 82.5348 163.375 82.484 162.918 82.468C160.854 81.2835 158.654 80.268 156.268 79.4216C163.747 77.2056 170.836 77.3065 174.542 82.0275C177.418 85.6655 176.606 91.0462 174.931 95.8006C174.711 96.443 174.458 97.0861 174.204 97.7292C174.186 97.7459 174.186 97.78 174.17 97.7967C181.682 108.981 184 124.023 184 141.129Z" fill="#37BC93"/>
</svg>
