<svg width="218" height="319" viewBox="0 0 218 319" fill="none" xmlns="http://www.w3.org/2000/svg">
<path d="M186.488 93.5322C186.426 94.0323 186.301 94.595 186.148 95.1889L186.051 95.5327L185.988 95.8766C185.866 96.6581 185.616 97.502 185.304 98.2835L185.144 98.7836C184.047 102.022 182.197 106.645 179.083 111.725C170.584 125.569 158.953 132.565 153.386 135.825C149.535 138.082 143.958 140.926 136.756 143.233L133.415 140.514L133.318 140.451L117.91 127.323C112.75 122.884 105.185 122.884 100.027 127.323L82.9633 141.858L67.6153 154.924L67.5184 154.986L61.3636 160.3C58.2659 162.895 56.4529 166.708 56.4529 170.803V319H0V0.162933H56.4529V110.474C69.8316 85.4987 98.2143 74.652 126.194 75.1209C138.788 75.1209 149.572 76.3713 158.856 78.9032C167.952 81.4039 175.614 85.0611 182.178 89.9687C183.678 91.0628 185.116 92.2506 186.488 93.5322Z" fill="#37BC93"/>
<path d="M218 188.839V319H161.544V199.342C161.544 198.248 161.544 197.154 161.485 196.028V170.803C161.485 166.708 159.731 162.894 156.64 160.3L151.826 156.174H151.732L151.51 155.986C142.636 159.831 133.727 162.488 125.819 164.239C124.69 164.551 123.505 164.645 122.411 164.645C122.096 164.645 121.786 164.645 121.474 164.551C120.814 170.897 115.535 175.804 108.97 175.804C102 175.804 96.4043 170.178 96.4043 163.207C96.4043 156.893 100.968 151.673 106.998 150.735C107.623 150.641 108.251 150.579 108.97 150.579C111.346 150.579 113.565 151.204 115.438 152.392C117.032 153.267 118.438 154.611 119.47 156.111L119.567 156.174C120.974 156.799 122.471 156.893 124.065 156.58C134.508 154.205 146.602 150.422 157.984 144.014C169.39 137.669 179.896 128.823 187.179 116.475C189.867 111.974 192.399 106.754 194.056 101.69C194.619 100.284 194.994 98.8456 195.244 97.5015C196.585 92.2188 196.585 87.4676 194.272 84.5293C192.087 81.7785 187.648 80.5907 182.178 80.5907C180.677 80.5907 179.896 80.4969 179.052 80.4656C175.235 78.2775 171.175 76.402 166.764 74.8391C180.58 70.7442 193.681 70.9318 200.523 79.6529C205.837 86.3735 204.34 96.3137 201.245 105.097C200.839 106.285 200.367 107.473 199.901 108.661C199.867 108.692 199.867 108.755 199.836 108.786C213.718 129.448 218 157.237 218 188.839Z" fill="#37BC93"/>
</svg>
