<svg width="2187" height="383" viewBox="0 0 2187 383" fill="none" xmlns="http://www.w3.org/2000/svg">
<g clip-path="url(#clip0_120_38)">
<path d="M177.7 89C177.623 89.5331 177.513 90.0608 177.37 90.58L177.29 90.9L177.23 91.23C177.094 92.0183 176.873 92.7895 176.57 93.53L176.42 94C174.962 98.314 173.023 102.45 170.64 106.33C162.55 119.53 151.46 126.19 146.16 129.33C141.152 132.258 135.836 134.625 130.31 136.39L127.13 133.8L127.04 133.74L112.35 121.23C109.988 119.189 106.971 118.066 103.85 118.066C100.729 118.066 97.7116 119.189 95.35 121.23L79.05 135L64.43 147.48L64.34 147.54L58.47 152.6C57.0038 153.821 55.8245 155.35 55.0156 157.078C54.2068 158.807 53.7884 160.692 53.79 162.6V303.82H0V0H53.79V105.12C66.54 81.32 93.59 71 120.25 71.43C132.25 71.43 142.53 72.63 151.37 75.04C159.377 77.1166 166.916 80.6931 173.59 85.58C175.028 86.6358 176.4 87.7779 177.7 89Z" fill="white"/>
<path d="M476.2 303.82H422.41V271.38C408.05 297.66 378.07 310.8 346.41 310.8C274.15 310.8 231.87 254.55 231.87 190.91C231.87 119.91 283.18 71.4399 346.41 71.4399C387.47 71.4399 412.51 93.1999 422.41 111.26V78.4199H476.2V303.82ZM285.7 192.14C285.7 220.06 305.81 260.71 354.26 260.71C384.26 260.71 403.94 245.11 414.2 224.58C419.54 214.72 422.01 204.05 422.82 192.97C423.246 182.095 421.137 171.27 416.66 161.35C407.22 140 386.28 121.53 353.85 121.53C310.33 121.53 285.7 156.84 285.7 191.73V192.14Z" fill="white"/>
<path d="M575.78 295.19L490.78 78.4199H548.26L603.26 228.27L657.49 78.4199H715L596.31 382.64H538.83L575.78 295.19Z" fill="white"/>
<path d="M947.46 303.82H896.14V271.38C886.29 288.22 864.94 310.8 818.95 310.8C749.57 310.8 704.82 256.6 704.82 190.91C704.82 117.83 756.96 71.44 818.14 71.44C861.24 71.44 885.46 94.44 893.68 107.57V0H947.46V303.82ZM758.6 190.91C758.6 229.1 786.11 260.3 827.6 260.3C836.889 260.351 846.097 258.564 854.692 255.04C863.287 251.517 871.1 246.327 877.68 239.77C884.218 233.232 889.315 225.397 892.642 216.77C895.97 208.143 897.454 198.915 897 189.68C897 169.97 889.19 153.14 876.88 141.23C864.56 128.92 847.31 121.53 828.02 121.53C784.08 121.53 758.63 155.2 758.63 190.53L758.6 190.91Z" fill="white"/>
<path d="M976.58 7.53003H1030.36V55.58H1024.62C1011.89 55.58 999.681 50.5229 990.679 41.5212C981.677 32.5194 976.62 20.3104 976.62 7.58003L976.58 7.53003Z" fill="#37BC93"/>
<path d="M1030.36 78.4199H976.58V303.81H1030.36V78.4199Z" fill="white"/>
<path d="M1184.17 146.71C1183.69 134.81 1176.46 114.96 1151.86 114.96C1130.64 114.96 1120.51 126.46 1120.51 137.54C1121 151.91 1140.29 159.71 1165.36 165.87C1207.8 175.72 1253.62 186.4 1254.1 234.87C1255.1 281.26 1209.25 310.87 1153.79 310.87C1112.79 310.87 1057.34 292.8 1052.52 238.19L1115.69 230.66C1118.1 254.89 1142.69 267.35 1154.76 267.35C1174.53 267.35 1191.4 256.27 1190.93 241.07C1190.93 221.78 1171.15 216.44 1122.44 202.07C1086.75 192.62 1057.82 175.79 1057.34 143.35C1057.34 99.01 1101.22 71.51 1152.34 71.51C1188.03 71.51 1241.07 85.06 1246.34 139.25L1184.17 146.71Z" fill="white"/>
<path d="M1511 303.82H1457.21V271.38C1442.85 297.66 1412.87 310.8 1381.21 310.8C1308.96 310.8 1266.67 254.55 1266.67 190.91C1266.67 119.91 1317.98 71.4399 1381.21 71.4399C1422.27 71.4399 1447.31 93.1999 1457.21 111.26V78.4199H1511V303.82ZM1320.5 192.14C1320.5 220.06 1340.62 260.71 1389.06 260.71C1419.06 260.71 1438.74 245.11 1449.06 224.58C1454.39 214.72 1456.86 204.05 1457.68 192.97C1458.1 182.095 1455.99 171.271 1451.52 161.35C1442.08 140 1421.13 121.53 1388.7 121.53C1345.18 121.53 1320.55 156.84 1320.55 191.73L1320.5 192.14Z" fill="white"/>
<path d="M1564.69 119.89H1527.33V78.42H1564.69V0H1618.48V78.42H1657.07V119.89H1618.48V303.82H1564.69V119.89Z" fill="white"/>
<path d="M207.73 179.8V303.8H153.93V189.8C153.93 188.8 153.93 187.72 153.87 186.65V162.65C153.88 160.747 153.473 158.866 152.676 157.138C151.88 155.41 150.713 153.878 149.26 152.65L144.67 148.72H144.58L144.37 148.54C136.476 151.927 128.28 154.558 119.89 156.4C118.829 156.675 117.736 156.807 116.64 156.79C116.341 156.805 116.041 156.774 115.75 156.7C115.498 158.924 114.63 161.033 113.243 162.789C111.855 164.545 110.005 165.878 107.9 166.638C105.795 167.397 103.519 167.553 101.33 167.088C99.1415 166.622 97.1263 165.554 95.5125 164.004C93.8987 162.453 92.7506 160.482 92.1979 158.314C91.6452 156.145 91.7099 153.865 92.3847 151.732C93.0595 149.598 94.3175 147.696 96.0166 146.239C97.7157 144.783 99.7882 143.83 102 143.49C102.619 143.392 103.244 143.341 103.87 143.34C105.836 143.361 107.768 143.851 109.507 144.767C111.246 145.683 112.741 147.001 113.87 148.61L113.96 148.67C115.315 149.242 116.814 149.378 118.25 149.06C128.2 146.79 139.73 143.19 150.57 137.06C161.41 130.93 171.45 122.59 178.39 110.82C181.073 106.372 183.269 101.648 184.94 96.7299C185.447 95.4371 185.826 94.0972 186.07 92.7299C187.35 87.7299 187.35 83.1699 185.15 80.3699C183.06 77.7499 178.84 76.6199 173.62 76.6199C172.19 76.6199 171.45 76.5299 170.62 76.4999C166.891 74.361 162.975 72.5669 158.92 71.1399C172.08 67.2299 184.56 67.4099 191.09 75.7199C196.15 82.1299 194.72 91.5999 191.77 99.9699C191.38 101.1 190.94 102.23 190.49 103.36C190.49 103.36 190.49 103.45 190.43 103.48C203.65 123.2 207.73 149.68 207.73 179.8Z" fill="white"/>
<path d="M1686.19 285.42C1686.19 297.94 1676.74 307.14 1664.19 307.14C1651.92 307.14 1642.72 297.94 1642.72 285.42C1642.72 272.9 1651.92 263.7 1664.19 263.7C1676.74 263.7 1686.19 272.9 1686.19 285.42Z" fill="#37BC93"/>
<path d="M1784.05 224.6C1781.75 218.91 1777.79 214.042 1772.69 210.626C1767.59 207.21 1761.58 205.404 1755.44 205.44C1746.49 205.44 1739.07 208.507 1733.2 214.64C1727.33 220.52 1724.26 228.18 1724.26 237.12C1724.26 255.52 1737.8 269.32 1755.44 269.32C1761.58 269.358 1767.59 267.552 1772.69 264.136C1777.79 260.72 1781.75 255.851 1784.05 250.16L1822.64 261.4C1812.42 289 1786.86 307.14 1755.44 307.14C1735.25 307.14 1718.13 300.49 1704.59 287.21C1691.04 273.66 1684.4 257.06 1684.4 237.38C1684.4 217.45 1691.04 200.84 1704.59 187.55C1718.14 174.26 1735.25 167.62 1755.44 167.62C1786.86 167.62 1812.44 185.76 1822.64 213.36L1784.05 224.6Z" fill="#37BC93"/>
<path d="M1828 237.38C1828 217.71 1834.64 201.1 1848.18 187.81C1861.73 174.27 1878.85 167.62 1899.03 167.62C1919.21 167.62 1936.09 174.27 1949.63 187.81C1963.17 201.1 1970.07 217.71 1970.07 237.38C1970.07 257.05 1963.17 273.66 1949.63 287.21C1936.09 300.49 1919.22 307.133 1899.03 307.14C1878.85 307.14 1861.73 300.49 1848.18 287.21C1834.64 273.66 1828 257.06 1828 237.38ZM1921 260.12C1923.98 257.139 1926.33 253.59 1927.91 249.684C1929.49 245.777 1930.27 241.593 1930.2 237.38C1930.29 233.201 1929.52 229.048 1927.94 225.179C1926.35 221.31 1923.99 217.808 1921 214.89C1918.23 211.823 1914.83 209.391 1911.03 207.759C1907.24 206.128 1903.13 205.337 1899 205.44C1890.06 205.44 1882.65 208.507 1876.77 214.64C1871.02 220.818 1867.83 228.943 1867.83 237.38C1867.83 245.817 1871.02 253.942 1876.77 260.12C1882.65 266.247 1890.06 269.313 1899 269.32C1903.11 269.412 1907.19 268.641 1910.98 267.056C1914.77 265.471 1918.18 263.108 1921 260.12V260.12Z" fill="#37BC93"/>
<path d="M1982.08 303.82V170.94H2020.4V182.94C2029.35 172.72 2040.85 167.61 2054.9 167.61C2072.27 167.61 2085.82 174.51 2095.27 188.05C2103.96 174.51 2117.27 167.61 2135.13 167.61C2149.7 167.61 2161.71 172.47 2171.67 181.92C2181.63 191.37 2186.49 202.87 2186.49 216.92V303.8H2148.17V227.16C2148.17 213.62 2138.46 203.16 2125.93 203.16C2113.4 203.16 2103.45 213.64 2103.45 227.16V303.82H2065.12V227.16C2065.12 213.62 2055.41 203.16 2042.89 203.16C2030.37 203.16 2020.4 213.64 2020.4 227.16V303.82H1982.08Z" fill="#37BC93"/>
</g>
<defs>
<clipPath id="clip0_120_38">
<rect width="2186.49" height="382.64" fill="white"/>
</clipPath>
</defs>
</svg>
